<svg xmlns="http://www.w3.org/2000/svg" xmlns:xlink="http://www.w3.org/1999/xlink" width="500" zoomAndPan="magnify" viewBox="0 0 375 374.999991" height="500" preserveAspectRatio="xMidYMid meet" version="1.0"><defs><clipPath id="494c82c247"><path d="M 1 0.441406 L 259.320312 0.441406 L 259.320312 295.878906 L 1 295.878906 Z M 1 0.441406 " clip-rule="nonzero"/></clipPath><clipPath id="516d054bd2"><path d="M 26.566406 0.503906 L 259.179688 22.230469 L 233.632812 295.734375 L 1.019531 274.003906 Z M 26.566406 0.503906 " clip-rule="nonzero"/></clipPath><clipPath id="74c02626b8"><path d="M 28.0625 0.644531 L 257.6875 22.09375 C 258.082031 22.128906 258.449219 22.324219 258.703125 22.628906 C 258.957031 22.933594 259.078125 23.328125 259.039062 23.726562 L 233.800781 293.941406 C 233.761719 294.335938 233.570312 294.703125 233.261719 294.957031 C 232.957031 295.210938 232.5625 295.332031 232.167969 295.296875 L 2.539062 273.84375 C 2.144531 273.808594 1.78125 273.617188 1.527344 273.308594 C 1.273438 273.003906 1.148438 272.609375 1.1875 272.210938 L 26.429688 1.996094 C 26.464844 1.601562 26.65625 1.234375 26.964844 0.980469 C 27.269531 0.726562 27.664062 0.605469 28.0625 0.644531 Z M 28.0625 0.644531 " clip-rule="nonzero"/></clipPath><clipPath id="860e02049d"><path d="M 0.078125 0.441406 L 258.078125 0.441406 L 258.078125 295.398438 L 0.078125 295.398438 Z M 0.078125 0.441406 " clip-rule="nonzero"/></clipPath><clipPath id="dab4260025"><path d="M 25.566406 0.503906 L 258.179688 22.230469 L 232.632812 295.734375 L 0.0195312 274.003906 Z M 25.566406 0.503906 " clip-rule="nonzero"/></clipPath><clipPath id="3eca725b94"><path d="M 27.0625 0.644531 L 256.6875 22.09375 C 257.082031 22.128906 257.449219 22.324219 257.703125 22.628906 C 257.957031 22.933594 258.078125 23.328125 258.039062 23.726562 L 232.800781 293.941406 C 232.761719 294.335938 232.570312 294.703125 232.261719 294.957031 C 231.957031 295.210938 231.5625 295.332031 231.167969 295.296875 L 1.539062 273.84375 C 1.144531 273.808594 0.78125 273.617188 0.527344 273.308594 C 0.273438 273.003906 0.148438 272.609375 0.1875 272.210938 L 25.429688 1.996094 C 25.464844 1.601562 25.65625 1.234375 25.964844 0.980469 C 26.269531 0.726562 26.664062 0.605469 27.0625 0.644531 Z M 27.0625 0.644531 " clip-rule="nonzero"/></clipPath><clipPath id="d130dde4a4"><rect x="0" width="259" y="0" height="296"/></clipPath><clipPath id="1817c8bf5d"><path d="M 38 37 L 224 37 L 224 230 L 38 230 Z M 38 37 " clip-rule="nonzero"/></clipPath><clipPath id="646cf8d77d"><path d="M 55.015625 37.398438 L 224.128906 53.195312 L 207.589844 230.234375 L 38.480469 214.4375 Z M 55.015625 37.398438 " clip-rule="nonzero"/></clipPath><clipPath id="6925d2c4b6"><path d="M 56.511719 37.535156 L 222.636719 53.054688 C 223.03125 53.09375 223.398438 53.285156 223.652344 53.589844 C 223.90625 53.898438 224.027344 54.292969 223.988281 54.6875 L 207.757812 228.445312 C 207.722656 228.839844 207.527344 229.207031 207.222656 229.460938 C 206.917969 229.714844 206.523438 229.835938 206.125 229.800781 L 40 214.28125 C 39.605469 214.242188 39.238281 214.050781 38.984375 213.746094 C 38.730469 213.4375 38.609375 213.042969 38.648438 212.648438 L 54.878906 38.890625 C 54.914062 38.496094 55.109375 38.128906 55.414062 37.875 C 55.71875 37.621094 56.113281 37.5 56.511719 37.535156 Z M 56.511719 37.535156 " clip-rule="nonzero"/></clipPath><clipPath id="1b9e1f52da"><path d="M 0.519531 0.398438 L 186 0.398438 L 186 192.878906 L 0.519531 192.878906 Z M 0.519531 0.398438 " clip-rule="nonzero"/></clipPath><clipPath id="377af60140"><path d="M 17.015625 0.398438 L 186.128906 16.195312 L 169.589844 193.234375 L 0.480469 177.4375 Z M 17.015625 0.398438 " clip-rule="nonzero"/></clipPath><clipPath id="dcfc13c382"><path d="M 18.511719 0.535156 L 184.636719 16.054688 C 185.03125 16.09375 185.398438 16.285156 185.652344 16.589844 C 185.90625 16.898438 186.027344 17.292969 185.988281 17.6875 L 169.757812 191.445312 C 169.722656 191.839844 169.527344 192.207031 169.222656 192.460938 C 168.917969 192.714844 168.523438 192.835938 168.125 192.800781 L 2 177.28125 C 1.605469 177.242188 1.238281 177.050781 0.984375 176.746094 C 0.730469 176.4375 0.609375 176.042969 0.648438 175.648438 L 16.878906 1.890625 C 16.914062 1.496094 17.109375 1.128906 17.414062 0.875 C 17.71875 0.621094 18.113281 0.5 18.511719 0.535156 Z M 18.511719 0.535156 " clip-rule="nonzero"/></clipPath><clipPath id="a222ddc3ac"><rect x="0" width="186" y="0" height="193"/></clipPath><clipPath id="7b3ea8d3e0"><path d="M 69 83 L 185 83 L 185 195 L 69 195 Z M 69 83 " clip-rule="nonzero"/></clipPath><clipPath id="dd0a283de1"><path d="M 66.734375 67.523438 L 203.367188 76.628906 L 195.3125 197.496094 L 58.679688 188.390625 Z M 66.734375 67.523438 " clip-rule="nonzero"/></clipPath><clipPath id="4828608d9f"><path d="M 66.734375 67.523438 L 203.367188 76.628906 L 195.3125 197.496094 L 58.679688 188.390625 Z M 66.734375 67.523438 " clip-rule="nonzero"/></clipPath><clipPath id="9833a23b7e"><path d="M 69 91 L 186 91 L 186 203 L 69 203 Z M 69 91 " clip-rule="nonzero"/></clipPath><clipPath id="541c031c8c"><path d="M 67.292969 75.511719 L 203.925781 84.617188 L 195.871094 205.484375 L 59.238281 196.378906 Z M 67.292969 75.511719 " clip-rule="nonzero"/></clipPath><clipPath id="b8cbbd0b54"><path d="M 67.292969 75.511719 L 203.925781 84.617188 L 195.871094 205.484375 L 59.238281 196.378906 Z M 67.292969 75.511719 " clip-rule="nonzero"/></clipPath><clipPath id="41e919dbe8"><path d="M 67 81 L 183 81 L 183 194 L 67 194 Z M 67 81 " clip-rule="nonzero"/></clipPath><clipPath id="9eda849e34"><path d="M 63.175781 71.195312 L 200.105469 72.726562 L 198.75 193.855469 L 61.820312 192.324219 Z M 63.175781 71.195312 " clip-rule="nonzero"/></clipPath><clipPath id="6eb4dc604e"><path d="M 63.175781 71.195312 L 200.105469 72.726562 L 198.75 193.855469 L 61.820312 192.324219 Z M 63.175781 71.195312 " clip-rule="nonzero"/></clipPath><clipPath id="5f7da7b663"><rect x="0" width="260" y="0" height="296"/></clipPath></defs><rect x="-37.5" width="450" fill="#ffffff" y="-37.499999" height="449.999989" fill-opacity="1"/><rect x="-37.5" width="450" fill="#e67e6a" y="-37.499999" height="449.999989" fill-opacity="1"/><g transform="matrix(1, 0, 0, 1, 57, 37)"><g clip-path="url(#5f7da7b663)"><g clip-path="url(#494c82c247)"><g clip-path="url(#516d054bd2)"><g clip-path="url(#74c02626b8)"><g transform="matrix(1, 0, 0, 1, 1, 0)"><g clip-path="url(#d130dde4a4)"><g clip-path="url(#860e02049d)"><g clip-path="url(#dab4260025)"><g clip-path="url(#3eca725b94)"><path fill="#ffffff" d="M 25.566406 0.503906 L 258.179688 22.230469 L 232.632812 295.734375 L 0.0195312 274.003906 Z M 25.566406 0.503906 " fill-opacity="1" fill-rule="nonzero"/></g></g></g></g></g></g></g></g><g clip-path="url(#1817c8bf5d)"><g clip-path="url(#646cf8d77d)"><g clip-path="url(#6925d2c4b6)"><g transform="matrix(1, 0, 0, 1, 38, 37)"><g clip-path="url(#a222ddc3ac)"><g clip-path="url(#1b9e1f52da)"><g clip-path="url(#377af60140)"><g clip-path="url(#dcfc13c382)"><path fill="#e67e6a" d="M 17.015625 0.398438 L 186.128906 16.195312 L 169.589844 193.234375 L 0.480469 177.4375 Z M 17.015625 0.398438 " fill-opacity="1" fill-rule="nonzero"/></g></g></g></g></g></g></g></g><g clip-path="url(#7b3ea8d3e0)"><g clip-path="url(#dd0a283de1)"><g clip-path="url(#4828608d9f)"><path fill="#ffffff" d="M 119.78125 131.683594 C 120.148438 131.058594 120.523438 130.328125 121.003906 129.601562 C 121.355469 111.347656 112.445312 97.34375 93.53125 93.917969 C 74.40625 90.375 71.5 106.402344 77.019531 120.941406 C 86.804688 146.144531 111.910156 168.691406 131.003906 187.269531 L 131.3125 187.503906 C 135.765625 184.015625 139.4375 179.175781 142.878906 174.648438 C 151.277344 163.851562 191.015625 103.121094 176.527344 91.664062 C 157.726562 76.78125 135.160156 115.1875 126.195312 131.246094 C 126.058594 131.671875 125.929688 131.984375 125.691406 132.292969 C 125.210938 133.019531 124.835938 133.753906 124.46875 134.375 C 123.738281 135.625 122.082031 136.164062 120.839844 135.324219 C 119.480469 134.585938 119.050781 132.933594 119.78125 131.683594 Z M 125.792969 121.054688 C 137.507812 101.066406 156.859375 73.585938 178.59375 86.609375 C 202.414062 100.851562 148.929688 184.460938 129.527344 194.847656 C 128.097656 195.1875 126.640625 194.332031 126.304688 192.902344 C 126.03125 192.128906 126.195312 191.273438 126.667969 190.65625 C 107.421875 172.71875 81.242188 146.855469 72.023438 122.878906 C 64.371094 103.007812 72.09375 84.488281 94.320312 88.5625 C 113.019531 91.972656 123.441406 104.347656 125.792969 121.054688 Z M 125.792969 121.054688 " fill-opacity="1" fill-rule="evenodd"/></g></g></g><g clip-path="url(#9833a23b7e)"><g clip-path="url(#541c031c8c)"><g clip-path="url(#b8cbbd0b54)"><path fill="#ffffff" d="M 120.339844 139.671875 C 120.707031 139.046875 121.082031 138.316406 121.5625 137.589844 C 121.914062 119.335938 113.003906 105.332031 94.089844 101.90625 C 74.964844 98.359375 72.058594 114.390625 77.578125 128.925781 C 87.363281 154.128906 112.46875 176.679688 131.5625 195.253906 L 131.871094 195.492188 C 136.320312 192.003906 139.996094 187.164062 143.4375 182.636719 C 151.835938 171.839844 191.574219 111.105469 177.085938 99.652344 C 158.285156 84.769531 135.71875 123.175781 126.75 139.234375 C 126.613281 139.65625 126.484375 139.972656 126.25 140.28125 C 125.769531 141.007812 125.394531 141.738281 125.027344 142.363281 C 124.296875 143.613281 122.636719 144.152344 121.394531 143.3125 C 120.039062 142.574219 119.609375 140.921875 120.339844 139.671875 Z M 126.347656 129.039062 C 138.0625 109.054688 157.417969 81.574219 179.152344 94.597656 C 202.972656 108.839844 149.488281 192.449219 130.085938 202.835938 C 128.65625 203.171875 127.199219 202.320312 126.859375 200.890625 C 126.589844 200.117188 126.753906 199.261719 127.226562 198.644531 C 107.980469 180.707031 81.800781 154.839844 72.582031 130.867188 C 64.929688 110.996094 72.652344 92.476562 94.878906 96.550781 C 113.578125 99.960938 124 112.335938 126.347656 129.039062 Z M 126.347656 129.039062 " fill-opacity="1" fill-rule="evenodd"/></g></g></g><g clip-path="url(#41e919dbe8)"><g clip-path="url(#9eda849e34)"><g clip-path="url(#6eb4dc604e)"><path fill="#ffffff" d="M 119.691406 132.324219 C 120.023438 131.679688 120.355469 130.929688 120.796875 130.175781 C 120.136719 111.929688 110.464844 98.441406 91.390625 96.070312 C 72.097656 93.585938 70.082031 109.753906 76.402344 123.960938 C 87.566406 148.585938 113.878906 169.707031 133.972656 187.199219 L 134.292969 187.421875 C 138.542969 183.691406 141.945312 178.65625 145.128906 173.941406 C 152.917969 162.699219 189.234375 99.859375 174.136719 89.222656 C 154.539062 75.40625 134.132812 115 126.070312 131.53125 C 125.957031 131.960938 125.84375 132.285156 125.625 132.605469 C 125.183594 133.355469 124.851562 134.109375 124.523438 134.753906 C 123.859375 136.039062 122.234375 136.667969 120.949219 135.898438 C 119.550781 135.234375 119.03125 133.613281 119.691406 132.324219 Z M 125.101562 121.375 C 135.695312 100.773438 153.496094 72.265625 175.921875 84.0625 C 200.492188 96.964844 151.714844 183.40625 132.914062 194.851562 C 131.507812 195.265625 130.003906 194.496094 129.589844 193.085938 C 129.273438 192.328125 129.390625 191.464844 129.832031 190.824219 C 109.621094 173.976562 82.050781 149.601562 71.519531 126.171875 C 62.777344 106.757812 69.464844 87.835938 91.882812 90.679688 C 110.742188 93.046875 121.835938 104.828125 125.101562 121.375 Z M 125.101562 121.375 " fill-opacity="1" fill-rule="evenodd"/></g></g></g></g></g></svg>