<svg xmlns="http://www.w3.org/2000/svg" xmlns:xlink="http://www.w3.org/1999/xlink" width="500" zoomAndPan="magnify" viewBox="0 0 375 374.999991" height="500" preserveAspectRatio="xMidYMid meet" version="1.0"><defs><g/><clipPath id="8788500bad"><path d="M 0.121094 1 L 47 1 L 47 55 L 0.121094 55 Z M 0.121094 1 " clip-rule="nonzero"/></clipPath><clipPath id="dde32b5c58"><path d="M 4.917969 1.589844 L 46.414062 5.46875 L 41.859375 54.261719 L 0.359375 50.386719 Z M 4.917969 1.589844 " clip-rule="nonzero"/></clipPath><clipPath id="55cf737291"><path d="M 6.410156 1.730469 L 44.921875 5.328125 C 45.746094 5.40625 46.351562 6.136719 46.277344 6.960938 L 42.003906 52.714844 C 41.925781 53.539062 41.195312 54.144531 40.371094 54.070312 L 1.855469 50.472656 C 1.03125 50.394531 0.425781 49.664062 0.503906 48.839844 L 4.777344 3.085938 C 4.855469 2.261719 5.585938 1.652344 6.410156 1.730469 Z M 6.410156 1.730469 " clip-rule="nonzero"/></clipPath><clipPath id="8d6d43ed76"><path d="M 0.359375 0.601562 L 46.441406 0.601562 L 46.441406 53.160156 L 0.359375 53.160156 Z M 0.359375 0.601562 " clip-rule="nonzero"/></clipPath><clipPath id="d0d5c9e8e7"><path d="M 4.917969 0.589844 L 46.414062 4.46875 L 41.859375 53.261719 L 0.359375 49.386719 Z M 4.917969 0.589844 " clip-rule="nonzero"/></clipPath><clipPath id="cdfbe25e63"><path d="M 6.410156 0.730469 L 44.921875 4.328125 C 45.746094 4.40625 46.351562 5.136719 46.277344 5.960938 L 42.003906 51.714844 C 41.925781 52.539062 41.195312 53.144531 40.371094 53.070312 L 1.855469 49.472656 C 1.03125 49.394531 0.425781 48.664062 0.503906 47.839844 L 4.777344 2.085938 C 4.855469 1.261719 5.585938 0.652344 6.410156 0.730469 Z M 6.410156 0.730469 " clip-rule="nonzero"/></clipPath><clipPath id="bf3a55c668"><rect x="0" width="47" y="0" height="54"/></clipPath><clipPath id="40bd9aa41e"><path d="M 7 8 L 41 8 L 41 43 L 7 43 Z M 7 8 " clip-rule="nonzero"/></clipPath><clipPath id="0cbb38e5e8"><path d="M 9.992188 8.171875 L 40.164062 10.992188 L 37.210938 42.578125 L 7.042969 39.757812 Z M 9.992188 8.171875 " clip-rule="nonzero"/></clipPath><clipPath id="4b75f61d73"><path d="M 11.484375 8.3125 L 38.667969 10.851562 C 39.496094 10.929688 40.101562 11.660156 40.023438 12.484375 L 37.355469 41.03125 C 37.28125 41.855469 36.546875 42.460938 35.722656 42.382812 L 8.539062 39.84375 C 7.714844 39.769531 7.109375 39.035156 7.1875 38.210938 L 9.851562 9.667969 C 9.929688 8.84375 10.660156 8.234375 11.484375 8.3125 Z M 11.484375 8.3125 " clip-rule="nonzero"/></clipPath><clipPath id="17744d4382"><path d="M 0.078125 0.078125 L 33.199219 0.078125 L 33.199219 34.640625 L 0.078125 34.640625 Z M 0.078125 0.078125 " clip-rule="nonzero"/></clipPath><clipPath id="46c943d7c1"><path d="M 2.992188 0.171875 L 33.164062 2.992188 L 30.210938 34.578125 L 0.0429688 31.757812 Z M 2.992188 0.171875 " clip-rule="nonzero"/></clipPath><clipPath id="98831abdc6"><path d="M 4.484375 0.3125 L 31.667969 2.851562 C 32.496094 2.929688 33.101562 3.660156 33.023438 4.484375 L 30.355469 33.03125 C 30.28125 33.855469 29.546875 34.460938 28.722656 34.382812 L 1.539062 31.84375 C 0.714844 31.769531 0.109375 31.035156 0.1875 30.210938 L 2.851562 1.667969 C 2.929688 0.84375 3.660156 0.234375 4.484375 0.3125 Z M 4.484375 0.3125 " clip-rule="nonzero"/></clipPath><clipPath id="9efc104b6a"><rect x="0" width="34" y="0" height="35"/></clipPath><clipPath id="372a907fe4"><path d="M 12 16 L 34 16 L 34 37 L 12 37 Z M 12 16 " clip-rule="nonzero"/></clipPath><clipPath id="96b7de6f1f"><path d="M 12.082031 13.550781 L 37.210938 15.222656 L 35.714844 37.707031 L 10.585938 36.035156 Z M 12.082031 13.550781 " clip-rule="nonzero"/></clipPath><clipPath id="a6421ff7dd"><path d="M 12.082031 13.550781 L 37.210938 15.222656 L 35.714844 37.707031 L 10.585938 36.035156 Z M 12.082031 13.550781 " clip-rule="nonzero"/></clipPath><clipPath id="7c23752e23"><path d="M 12 17 L 34 17 L 34 38 L 12 38 Z M 12 17 " clip-rule="nonzero"/></clipPath><clipPath id="bf19a915f6"><path d="M 12.183594 14.972656 L 37.3125 16.648438 L 35.8125 39.132812 L 10.683594 37.457031 Z M 12.183594 14.972656 " clip-rule="nonzero"/></clipPath><clipPath id="1790b94eac"><path d="M 12.183594 14.972656 L 37.3125 16.648438 L 35.8125 39.132812 L 10.683594 37.457031 Z M 12.183594 14.972656 " clip-rule="nonzero"/></clipPath><clipPath id="5e86e57d98"><path d="M 12 16 L 33 16 L 33 37 L 12 37 Z M 12 16 " clip-rule="nonzero"/></clipPath><clipPath id="edae2a110e"><path d="M 11.449219 14.203125 L 36.632812 14.484375 L 36.378906 37.019531 L 11.195312 36.738281 Z M 11.449219 14.203125 " clip-rule="nonzero"/></clipPath><clipPath id="5254ed05c9"><path d="M 11.449219 14.203125 L 36.632812 14.484375 L 36.378906 37.019531 L 11.195312 36.738281 Z M 11.449219 14.203125 " clip-rule="nonzero"/></clipPath><clipPath id="45cb925f16"><path d="M 48 0.640625 L 343.558594 0.640625 L 343.558594 58.238281 L 48 58.238281 Z M 48 0.640625 " clip-rule="nonzero"/></clipPath><clipPath id="4a7fb1fb12"><rect x="0" width="296" y="0" height="59"/></clipPath><clipPath id="991a6c6e5d"><rect x="0" width="344" y="0" height="59"/></clipPath></defs><rect x="-37.5" width="450" fill="#ffffff" y="-37.499999" height="449.999989" fill-opacity="1"/><rect x="-37.5" width="450" fill="#ffffff" y="-37.499999" height="449.999989" fill-opacity="1"/><g transform="matrix(1, 0, 0, 1, 15, 158)"><g clip-path="url(#991a6c6e5d)"><g clip-path="url(#8788500bad)"><g clip-path="url(#dde32b5c58)"><g clip-path="url(#55cf737291)"><g transform="matrix(1, 0, 0, 1, -0.000000000000001776, 1)"><g clip-path="url(#bf3a55c668)"><g clip-path="url(#8d6d43ed76)"><g clip-path="url(#d0d5c9e8e7)"><g clip-path="url(#cdfbe25e63)"><path fill="#e67e6a" d="M 4.917969 0.589844 L 46.414062 4.46875 L 41.859375 53.261719 L 0.359375 49.386719 Z M 4.917969 0.589844 " fill-opacity="1" fill-rule="nonzero"/></g></g></g></g></g></g></g></g><g clip-path="url(#40bd9aa41e)"><g clip-path="url(#0cbb38e5e8)"><g clip-path="url(#4b75f61d73)"><g transform="matrix(1, 0, 0, 1, 7, 8)"><g clip-path="url(#9efc104b6a)"><g clip-path="url(#17744d4382)"><g clip-path="url(#46c943d7c1)"><g clip-path="url(#98831abdc6)"><path fill="#ffffff" d="M 2.992188 0.171875 L 33.164062 2.992188 L 30.210938 34.578125 L 0.0429688 31.757812 Z M 2.992188 0.171875 " fill-opacity="1" fill-rule="nonzero"/></g></g></g></g></g></g></g></g><g clip-path="url(#372a907fe4)"><g clip-path="url(#96b7de6f1f)"><g clip-path="url(#a6421ff7dd)"><path fill="#e67e6a" d="M 21.546875 24.988281 C 21.609375 24.878906 21.675781 24.746094 21.761719 24.617188 C 21.824219 21.363281 20.238281 18.863281 16.863281 18.253906 C 13.453125 17.621094 12.933594 20.480469 13.917969 23.074219 C 15.664062 27.570312 20.140625 31.589844 23.546875 34.90625 L 23.601562 34.945312 C 24.394531 34.324219 25.050781 33.460938 25.664062 32.652344 C 27.164062 30.726562 34.25 19.894531 31.667969 17.851562 C 28.3125 15.195312 24.289062 22.046875 22.6875 24.910156 C 22.664062 24.988281 22.640625 25.042969 22.597656 25.097656 C 22.511719 25.226562 22.445312 25.359375 22.382812 25.46875 C 22.25 25.691406 21.957031 25.789062 21.734375 25.640625 C 21.492188 25.507812 21.414062 25.210938 21.546875 24.988281 Z M 22.617188 23.09375 C 24.707031 19.527344 28.160156 14.625 32.035156 16.949219 C 36.285156 19.488281 26.746094 34.402344 23.285156 36.257812 C 23.027344 36.316406 22.769531 36.164062 22.707031 35.910156 C 22.660156 35.769531 22.6875 35.617188 22.773438 35.507812 C 19.339844 32.308594 14.671875 27.695312 13.027344 23.417969 C 11.660156 19.875 13.039062 16.570312 17.003906 17.296875 C 20.339844 17.90625 22.199219 20.113281 22.617188 23.09375 Z M 22.617188 23.09375 " fill-opacity="1" fill-rule="evenodd"/></g></g></g><g clip-path="url(#7c23752e23)"><g clip-path="url(#bf19a915f6)"><g clip-path="url(#1790b94eac)"><path fill="#e67e6a" d="M 21.644531 26.414062 C 21.710938 26.304688 21.777344 26.171875 21.863281 26.042969 C 21.925781 22.785156 20.335938 20.289062 16.960938 19.679688 C 13.550781 19.046875 13.03125 21.90625 14.015625 24.496094 C 15.761719 28.992188 20.242188 33.015625 23.648438 36.328125 L 23.703125 36.371094 C 24.496094 35.75 25.152344 34.886719 25.765625 34.078125 C 27.261719 32.152344 34.351562 21.320312 31.765625 19.277344 C 28.414062 16.621094 24.386719 23.472656 22.789062 26.335938 C 22.765625 26.414062 22.742188 26.46875 22.699219 26.523438 C 22.613281 26.652344 22.546875 26.785156 22.480469 26.894531 C 22.351562 27.117188 22.054688 27.214844 21.832031 27.0625 C 21.589844 26.933594 21.515625 26.636719 21.644531 26.414062 Z M 22.714844 24.519531 C 24.804688 20.953125 28.257812 16.050781 32.136719 18.375 C 36.382812 20.914062 26.84375 35.828125 23.382812 37.683594 C 23.128906 37.742188 22.867188 37.589844 22.808594 37.335938 C 22.757812 37.195312 22.789062 37.042969 22.875 36.933594 C 19.441406 33.734375 14.769531 29.121094 13.125 24.84375 C 11.761719 21.300781 13.136719 17.996094 17.101562 18.722656 C 20.4375 19.332031 22.296875 21.539062 22.714844 24.519531 Z M 22.714844 24.519531 " fill-opacity="1" fill-rule="evenodd"/></g></g></g><g clip-path="url(#5e86e57d98)"><g clip-path="url(#edae2a110e)"><g clip-path="url(#5254ed05c9)"><path fill="#e67e6a" d="M 21.53125 25.105469 C 21.589844 24.988281 21.648438 24.855469 21.726562 24.722656 C 21.609375 21.464844 19.882812 19.058594 16.480469 18.636719 C 13.039062 18.195312 12.679688 21.078125 13.808594 23.613281 C 15.796875 28.003906 20.492188 31.773438 24.078125 34.890625 L 24.132812 34.929688 C 24.890625 34.265625 25.5 33.367188 26.066406 32.527344 C 27.457031 30.523438 33.933594 19.3125 31.242188 17.414062 C 27.746094 14.949219 24.105469 22.015625 22.667969 24.960938 C 22.648438 25.039062 22.625 25.097656 22.585938 25.152344 C 22.507812 25.289062 22.449219 25.421875 22.390625 25.535156 C 22.273438 25.765625 21.984375 25.878906 21.753906 25.742188 C 21.503906 25.625 21.410156 25.332031 21.53125 25.105469 Z M 22.496094 23.152344 C 24.382812 19.476562 27.558594 14.390625 31.558594 16.496094 C 35.941406 18.796875 27.242188 34.214844 23.886719 36.257812 C 23.636719 36.332031 23.367188 36.195312 23.292969 35.941406 C 23.238281 35.808594 23.257812 35.652344 23.335938 35.539062 C 19.734375 32.535156 14.816406 28.1875 12.9375 24.007812 C 11.378906 20.542969 12.570312 17.167969 16.570312 17.675781 C 19.933594 18.097656 21.910156 20.199219 22.496094 23.152344 Z M 22.496094 23.152344 " fill-opacity="1" fill-rule="evenodd"/></g></g></g><g clip-path="url(#45cb925f16)"><g transform="matrix(1, 0, 0, 1, 48, 0)"><g clip-path="url(#4a7fb1fb12)"><g fill="#1f1d1b" fill-opacity="1"><g transform="translate(0.407871, 44.876238)"><g><path d="M 32.203125 -26.734375 C 32.203125 -24.171875 31.460938 -22.023438 29.984375 -20.296875 C 28.503906 -18.566406 26.140625 -17.410156 22.890625 -16.828125 L 33.640625 -4.5 C 34.390625 -3.632812 35.269531 -2.976562 36.28125 -2.53125 C 37.300781 -2.082031 38.335938 -1.859375 39.390625 -1.859375 L 39.390625 0 L 28.40625 0 L 16.921875 -14.09375 C 16.140625 -15.019531 15.460938 -15.644531 14.890625 -15.96875 C 14.328125 -16.289062 13.796875 -16.453125 13.296875 -16.453125 L 13.296875 -7.375 C 13.296875 -6.226562 13.375 -5.289062 13.53125 -4.5625 C 13.6875 -3.832031 13.992188 -3.265625 14.453125 -2.859375 C 14.921875 -2.460938 15.59375 -2.195312 16.46875 -2.0625 C 17.351562 -1.925781 18.535156 -1.859375 20.015625 -1.859375 L 20.015625 0 L 1.625 0 L 1.625 -1.859375 C 2.644531 -1.859375 3.46875 -1.925781 4.09375 -2.0625 C 4.726562 -2.195312 5.222656 -2.457031 5.578125 -2.84375 C 5.941406 -3.226562 6.179688 -3.769531 6.296875 -4.46875 C 6.421875 -5.164062 6.484375 -6.054688 6.484375 -7.140625 L 6.484375 -28.546875 C 6.484375 -29.628906 6.4375 -30.5 6.34375 -31.15625 C 6.25 -31.820312 6.046875 -32.347656 5.734375 -32.734375 C 5.429688 -33.128906 4.992188 -33.394531 4.421875 -33.53125 C 3.847656 -33.664062 3.082031 -33.765625 2.125 -33.828125 L 2.125 -35.6875 L 18.171875 -35.6875 C 22.648438 -35.6875 26.109375 -34.894531 28.546875 -33.3125 C 30.984375 -31.738281 32.203125 -29.546875 32.203125 -26.734375 Z M 13.296875 -19.234375 L 16.3125 -19.234375 C 19.21875 -19.234375 21.390625 -19.796875 22.828125 -20.921875 C 24.265625 -22.046875 24.984375 -23.910156 24.984375 -26.515625 C 24.984375 -28.484375 24.378906 -30.070312 23.171875 -31.28125 C 21.960938 -32.488281 20.296875 -33.09375 18.171875 -33.09375 L 14.140625 -33.09375 C 13.578125 -33.09375 13.296875 -32.828125 13.296875 -32.296875 Z M 13.296875 -19.234375 "/></g></g></g><g fill="#1f1d1b" fill-opacity="1"><g transform="translate(37.904433, 44.876238)"><g><path d="M 25.03125 -4.3125 C 22.21875 -1.125 18.707031 0.46875 14.5 0.46875 C 12.582031 0.46875 10.84375 0.164062 9.28125 -0.4375 C 7.726562 -1.039062 6.394531 -1.890625 5.28125 -2.984375 C 4.164062 -4.085938 3.300781 -5.394531 2.6875 -6.90625 C 2.070312 -8.414062 1.765625 -10.097656 1.765625 -11.953125 C 1.765625 -13.867188 2.085938 -15.625 2.734375 -17.21875 C 3.378906 -18.8125 4.296875 -20.1875 5.484375 -21.34375 C 6.679688 -22.5 8.085938 -23.398438 9.703125 -24.046875 C 11.328125 -24.703125 13.113281 -25.03125 15.0625 -25.03125 C 18.332031 -25.03125 20.878906 -24.148438 22.703125 -22.390625 C 24.523438 -20.628906 25.4375 -18.15625 25.4375 -14.96875 C 25.4375 -14.476562 25.359375 -14.175781 25.203125 -14.0625 C 25.054688 -13.957031 24.625 -13.90625 23.90625 -13.90625 L 8.984375 -13.90625 C 8.867188 -13.625 8.8125 -13.113281 8.8125 -12.375 C 8.8125 -9.34375 9.46875 -6.945312 10.78125 -5.1875 C 12.09375 -3.425781 13.875 -2.546875 16.125 -2.546875 C 17.425781 -2.546875 18.71875 -2.835938 20 -3.421875 C 21.28125 -4.015625 22.523438 -4.851562 23.734375 -5.9375 Z M 16.03125 -16.5 C 17.269531 -16.5 18.066406 -16.566406 18.421875 -16.703125 C 18.773438 -16.847656 18.953125 -17.179688 18.953125 -17.703125 C 18.953125 -19.066406 18.566406 -20.179688 17.796875 -21.046875 C 17.023438 -21.910156 16.050781 -22.34375 14.875 -22.34375 C 13.550781 -22.34375 12.367188 -21.789062 11.328125 -20.6875 C 10.296875 -19.59375 9.625 -18.195312 9.3125 -16.5 Z M 16.03125 -16.5 "/></g></g></g><g fill="#1f1d1b" fill-opacity="1"><g transform="translate(65.018763, 44.876238)"><g><path d="M 1.15625 -22.015625 L 1.15625 -24.09375 C 3.007812 -24.625 4.5625 -25.421875 5.8125 -26.484375 C 7.0625 -27.546875 8 -28.773438 8.625 -30.171875 L 10.984375 -30.171875 L 10.984375 -24.5625 L 16.3125 -24.5625 L 16.3125 -22.015625 L 10.984375 -22.015625 L 10.984375 -7.78125 C 10.984375 -5.863281 11.191406 -4.503906 11.609375 -3.703125 C 12.023438 -2.898438 12.726562 -2.5 13.71875 -2.5 C 14.925781 -2.5 15.835938 -3.054688 16.453125 -4.171875 L 17.421875 -2.828125 C 16.554688 -0.628906 14.519531 0.46875 11.3125 0.46875 C 9.175781 0.46875 7.515625 -0.0234375 6.328125 -1.015625 C 5.140625 -2.003906 4.546875 -3.394531 4.546875 -5.1875 L 4.546875 -22.015625 Z M 1.15625 -22.015625 "/></g></g></g><g fill="#1f1d1b" fill-opacity="1"><g transform="translate(82.724181, 44.876238)"><g><path d="M 11.953125 -7.1875 C 11.953125 -5.976562 12.003906 -5.023438 12.109375 -4.328125 C 12.222656 -3.640625 12.445312 -3.109375 12.78125 -2.734375 C 13.125 -2.359375 13.617188 -2.117188 14.265625 -2.015625 C 14.921875 -1.910156 15.789062 -1.859375 16.875 -1.859375 L 16.875 0 L 1.390625 0 L 1.390625 -1.859375 C 2.316406 -1.921875 3.054688 -2.007812 3.609375 -2.125 C 4.171875 -2.25 4.585938 -2.492188 4.859375 -2.859375 C 5.140625 -3.234375 5.316406 -3.769531 5.390625 -4.46875 C 5.472656 -5.164062 5.515625 -6.101562 5.515625 -7.28125 L 5.515625 -12.9375 C 5.515625 -14.84375 5.46875 -16.367188 5.375 -17.515625 C 5.28125 -18.660156 5.078125 -19.539062 4.765625 -20.15625 C 4.460938 -20.78125 4.023438 -21.191406 3.453125 -21.390625 C 2.878906 -21.585938 2.128906 -21.6875 1.203125 -21.6875 L 1.203125 -23.3125 L 10.46875 -25.03125 L 11.21875 -19.703125 L 11.40625 -19.703125 C 12.238281 -21.335938 13.332031 -22.632812 14.6875 -23.59375 C 16.050781 -24.550781 17.488281 -25.03125 19 -25.03125 C 20.175781 -25.03125 21.132812 -24.734375 21.875 -24.140625 C 22.613281 -23.554688 22.984375 -22.816406 22.984375 -21.921875 C 22.984375 -20.929688 22.695312 -20.097656 22.125 -19.421875 C 21.550781 -18.742188 20.769531 -18.40625 19.78125 -18.40625 C 19.320312 -18.40625 18.90625 -18.492188 18.53125 -18.671875 C 18.164062 -18.859375 17.832031 -19.066406 17.53125 -19.296875 C 17.238281 -19.535156 16.945312 -19.753906 16.65625 -19.953125 C 16.363281 -20.148438 16.0625 -20.25 15.75 -20.25 C 15.164062 -20.25 14.609375 -19.863281 14.078125 -19.09375 C 13.554688 -18.320312 13.128906 -17.285156 12.796875 -15.984375 C 12.546875 -15.054688 12.34375 -14.015625 12.1875 -12.859375 C 12.03125 -11.703125 11.953125 -10.550781 11.953125 -9.40625 Z M 11.953125 -7.1875 "/></g></g></g><g fill="#1f1d1b" fill-opacity="1"><g transform="translate(105.574369, 44.876238)"><g><path d="M 15.203125 -25.03125 C 17.054688 -25.03125 18.804688 -24.710938 20.453125 -24.078125 C 22.109375 -23.441406 23.5625 -22.566406 24.8125 -21.453125 C 26.0625 -20.335938 27.050781 -19.015625 27.78125 -17.484375 C 28.507812 -15.960938 28.875 -14.289062 28.875 -12.46875 C 28.875 -10.582031 28.507812 -8.847656 27.78125 -7.265625 C 27.050781 -5.691406 26.0625 -4.332031 24.8125 -3.1875 C 23.5625 -2.050781 22.109375 -1.15625 20.453125 -0.5 C 18.804688 0.144531 17.054688 0.46875 15.203125 0.46875 C 13.378906 0.46875 11.644531 0.148438 10 -0.484375 C 8.363281 -1.117188 6.925781 -2.003906 5.6875 -3.140625 C 4.457031 -4.285156 3.488281 -5.65625 2.78125 -7.25 C 2.070312 -8.84375 1.71875 -10.582031 1.71875 -12.46875 C 1.71875 -14.289062 2.070312 -15.972656 2.78125 -17.515625 C 3.488281 -19.054688 4.457031 -20.382812 5.6875 -21.5 C 6.925781 -22.613281 8.363281 -23.476562 10 -24.09375 C 11.644531 -24.71875 13.378906 -25.03125 15.203125 -25.03125 Z M 15.203125 -22.34375 C 14.273438 -22.34375 13.425781 -22.101562 12.65625 -21.625 C 11.882812 -21.144531 11.226562 -20.472656 10.6875 -19.609375 C 10.144531 -18.742188 9.722656 -17.695312 9.421875 -16.46875 C 9.128906 -15.25 8.984375 -13.898438 8.984375 -12.421875 C 8.984375 -10.878906 9.128906 -9.488281 9.421875 -8.25 C 9.722656 -7.007812 10.144531 -5.957031 10.6875 -5.09375 C 11.226562 -4.226562 11.875 -3.554688 12.625 -3.078125 C 13.382812 -2.597656 14.242188 -2.359375 15.203125 -2.359375 C 16.160156 -2.359375 17.03125 -2.597656 17.8125 -3.078125 C 18.601562 -3.554688 19.273438 -4.234375 19.828125 -5.109375 C 20.390625 -5.992188 20.820312 -7.054688 21.125 -8.296875 C 21.4375 -9.535156 21.59375 -10.910156 21.59375 -12.421875 C 21.59375 -13.898438 21.4375 -15.242188 21.125 -16.453125 C 20.820312 -17.660156 20.390625 -18.703125 19.828125 -19.578125 C 19.273438 -20.460938 18.601562 -21.144531 17.8125 -21.625 C 17.03125 -22.101562 16.160156 -22.34375 15.203125 -22.34375 Z M 15.203125 -22.34375 "/></g></g></g><g fill="#1f1d1b" fill-opacity="1"><g transform="translate(135.052468, 44.876238)"><g><path d="M 13.296875 -7.46875 C 13.296875 -6.289062 13.375 -5.335938 13.53125 -4.609375 C 13.6875 -3.878906 14.003906 -3.320312 14.484375 -2.9375 C 14.960938 -2.550781 15.640625 -2.28125 16.515625 -2.125 C 17.398438 -1.976562 18.582031 -1.890625 20.0625 -1.859375 L 20.0625 0 L 1.625 0 L 1.625 -1.859375 C 2.644531 -1.890625 3.476562 -1.976562 4.125 -2.125 C 4.769531 -2.28125 5.265625 -2.539062 5.609375 -2.90625 C 5.953125 -3.28125 6.179688 -3.804688 6.296875 -4.484375 C 6.421875 -5.171875 6.484375 -6.054688 6.484375 -7.140625 L 6.484375 -28.546875 C 6.484375 -29.628906 6.425781 -30.5 6.3125 -31.15625 C 6.207031 -31.820312 6 -32.347656 5.6875 -32.734375 C 5.382812 -33.128906 4.945312 -33.394531 4.375 -33.53125 C 3.800781 -33.664062 3.050781 -33.765625 2.125 -33.828125 L 2.125 -35.6875 L 30.5 -35.6875 L 31.046875 -25.90625 L 29.109375 -25.90625 C 28.921875 -27.238281 28.648438 -28.359375 28.296875 -29.265625 C 27.941406 -30.179688 27.4375 -30.921875 26.78125 -31.484375 C 26.132812 -32.054688 25.300781 -32.46875 24.28125 -32.71875 C 23.257812 -32.96875 22.007812 -33.09375 20.53125 -33.09375 L 14.140625 -33.09375 C 13.578125 -33.09375 13.296875 -32.828125 13.296875 -32.296875 L 13.296875 -18.90625 C 15.179688 -18.90625 16.71875 -18.984375 17.90625 -19.140625 C 19.101562 -19.296875 20.054688 -19.597656 20.765625 -20.046875 C 21.472656 -20.492188 21.976562 -21.101562 22.28125 -21.875 C 22.59375 -22.644531 22.8125 -23.664062 22.9375 -24.9375 L 24.65625 -24.9375 L 24.65625 -10.421875 L 22.9375 -10.421875 C 22.75 -11.722656 22.484375 -12.765625 22.140625 -13.546875 C 21.804688 -14.335938 21.289062 -14.941406 20.59375 -15.359375 C 19.90625 -15.773438 18.972656 -16.0625 17.796875 -16.21875 C 16.617188 -16.375 15.117188 -16.453125 13.296875 -16.453125 Z M 13.296875 -7.46875 "/></g></g></g><g fill="#1f1d1b" fill-opacity="1"><g transform="translate(166.987129, 44.876238)"><g><path d="M 11.953125 -7.1875 C 11.953125 -5.976562 12.003906 -5.023438 12.109375 -4.328125 C 12.222656 -3.640625 12.445312 -3.109375 12.78125 -2.734375 C 13.125 -2.359375 13.617188 -2.117188 14.265625 -2.015625 C 14.921875 -1.910156 15.789062 -1.859375 16.875 -1.859375 L 16.875 0 L 1.390625 0 L 1.390625 -1.859375 C 2.316406 -1.921875 3.054688 -2.007812 3.609375 -2.125 C 4.171875 -2.25 4.585938 -2.492188 4.859375 -2.859375 C 5.140625 -3.234375 5.316406 -3.769531 5.390625 -4.46875 C 5.472656 -5.164062 5.515625 -6.101562 5.515625 -7.28125 L 5.515625 -12.9375 C 5.515625 -14.84375 5.46875 -16.367188 5.375 -17.515625 C 5.28125 -18.660156 5.078125 -19.539062 4.765625 -20.15625 C 4.460938 -20.78125 4.023438 -21.191406 3.453125 -21.390625 C 2.878906 -21.585938 2.128906 -21.6875 1.203125 -21.6875 L 1.203125 -23.3125 L 10.46875 -25.03125 L 11.21875 -19.703125 L 11.40625 -19.703125 C 12.238281 -21.335938 13.332031 -22.632812 14.6875 -23.59375 C 16.050781 -24.550781 17.488281 -25.03125 19 -25.03125 C 20.175781 -25.03125 21.132812 -24.734375 21.875 -24.140625 C 22.613281 -23.554688 22.984375 -22.816406 22.984375 -21.921875 C 22.984375 -20.929688 22.695312 -20.097656 22.125 -19.421875 C 21.550781 -18.742188 20.769531 -18.40625 19.78125 -18.40625 C 19.320312 -18.40625 18.90625 -18.492188 18.53125 -18.671875 C 18.164062 -18.859375 17.832031 -19.066406 17.53125 -19.296875 C 17.238281 -19.535156 16.945312 -19.753906 16.65625 -19.953125 C 16.363281 -20.148438 16.0625 -20.25 15.75 -20.25 C 15.164062 -20.25 14.609375 -19.863281 14.078125 -19.09375 C 13.554688 -18.320312 13.128906 -17.285156 12.796875 -15.984375 C 12.546875 -15.054688 12.34375 -14.015625 12.1875 -12.859375 C 12.03125 -11.703125 11.953125 -10.550781 11.953125 -9.40625 Z M 11.953125 -7.1875 "/></g></g></g><g fill="#1f1d1b" fill-opacity="1"><g transform="translate(190.069066, 44.876238)"><g><path d="M 15.9375 -13.203125 C 13.34375 -12.035156 11.390625 -10.945312 10.078125 -9.9375 C 8.765625 -8.9375 8.109375 -7.894531 8.109375 -6.8125 C 8.109375 -5.914062 8.351562 -5.203125 8.84375 -4.671875 C 9.34375 -4.148438 9.960938 -3.890625 10.703125 -3.890625 C 11.441406 -3.890625 12.132812 -4.019531 12.78125 -4.28125 C 13.4375 -4.550781 13.992188 -4.898438 14.453125 -5.328125 C 14.921875 -5.765625 15.285156 -6.28125 15.546875 -6.875 C 15.804688 -7.476562 15.9375 -8.125 15.9375 -8.8125 Z M 15.9375 -15.671875 L 15.9375 -17.609375 C 15.9375 -19.398438 15.617188 -20.703125 14.984375 -21.515625 C 14.359375 -22.335938 13.378906 -22.75 12.046875 -22.75 C 11.148438 -22.75 10.46875 -22.507812 10 -22.03125 C 9.539062 -21.550781 9.113281 -20.757812 8.71875 -19.65625 C 8.4375 -18.875 8.039062 -18.265625 7.53125 -17.828125 C 7.019531 -17.398438 6.316406 -17.1875 5.421875 -17.1875 C 4.554688 -17.1875 3.890625 -17.445312 3.421875 -17.96875 C 2.960938 -18.5 2.734375 -19.242188 2.734375 -20.203125 C 2.734375 -21.691406 3.539062 -22.867188 5.15625 -23.734375 C 6.78125 -24.597656 9.234375 -25.03125 12.515625 -25.03125 C 15.972656 -25.03125 18.441406 -24.398438 19.921875 -23.140625 C 21.410156 -21.890625 22.15625 -19.800781 22.15625 -16.875 L 22.15625 -6.71875 C 22.15625 -4.09375 22.679688 -2.78125 23.734375 -2.78125 C 24.316406 -2.78125 24.851562 -2.984375 25.34375 -3.390625 L 26.046875 -2.046875 C 25.609375 -1.265625 24.929688 -0.648438 24.015625 -0.203125 C 23.109375 0.242188 22.085938 0.46875 20.953125 0.46875 C 19.523438 0.46875 18.441406 0.0351562 17.703125 -0.828125 C 16.960938 -1.691406 16.59375 -2.914062 16.59375 -4.5 L 16.359375 -4.5 C 15.460938 -2.882812 14.300781 -1.660156 12.875 -0.828125 C 11.457031 0.00390625 9.835938 0.421875 8.015625 0.421875 C 6.066406 0.421875 4.503906 -0.125 3.328125 -1.21875 C 2.160156 -2.320312 1.578125 -3.753906 1.578125 -5.515625 C 1.578125 -6.867188 2.175781 -8.140625 3.375 -9.328125 C 4.582031 -10.523438 6.59375 -11.695312 9.40625 -12.84375 Z M 15.9375 -15.671875 "/></g></g></g><g fill="#1f1d1b" fill-opacity="1"><g transform="translate(216.673545, 44.876238)"><g><path d="M 11.953125 -7.640625 C 11.953125 -6.347656 11.984375 -5.328125 12.046875 -4.578125 C 12.109375 -3.835938 12.273438 -3.273438 12.546875 -2.890625 C 12.828125 -2.503906 13.226562 -2.25 13.75 -2.125 C 14.28125 -2.007812 15.007812 -1.921875 15.9375 -1.859375 L 15.9375 0 L 1.296875 0 L 1.296875 -1.859375 C 2.222656 -1.921875 2.960938 -2.007812 3.515625 -2.125 C 4.078125 -2.25 4.492188 -2.492188 4.765625 -2.859375 C 5.046875 -3.234375 5.234375 -3.769531 5.328125 -4.46875 C 5.421875 -5.164062 5.46875 -6.101562 5.46875 -7.28125 L 5.46875 -13.015625 C 5.46875 -14.785156 5.441406 -16.253906 5.390625 -17.421875 C 5.347656 -18.597656 5.265625 -19.398438 5.140625 -19.828125 C 5.046875 -20.234375 4.929688 -20.550781 4.796875 -20.78125 C 4.660156 -21.007812 4.441406 -21.191406 4.140625 -21.328125 C 3.847656 -21.472656 3.46875 -21.566406 3 -21.609375 C 2.539062 -21.660156 1.941406 -21.6875 1.203125 -21.6875 L 1.203125 -23.265625 L 10.15625 -25.03125 L 10.703125 -21 L 10.984375 -21 C 12.285156 -22.445312 13.59375 -23.476562 14.90625 -24.09375 C 16.21875 -24.71875 17.738281 -25.03125 19.46875 -25.03125 C 21.5 -25.03125 23.179688 -24.671875 24.515625 -23.953125 C 25.847656 -23.242188 26.851562 -22.226562 27.53125 -20.90625 L 27.71875 -20.90625 C 28.820312 -22.195312 30.144531 -23.207031 31.6875 -23.9375 C 33.238281 -24.664062 34.894531 -25.03125 36.65625 -25.03125 C 38.507812 -25.03125 40.125 -24.796875 41.5 -24.328125 C 42.875 -23.867188 43.945312 -23.207031 44.71875 -22.34375 C 45.34375 -21.625 45.800781 -20.691406 46.09375 -19.546875 C 46.382812 -18.410156 46.53125 -16.820312 46.53125 -14.78125 L 46.53125 -7.640625 C 46.53125 -6.378906 46.566406 -5.375 46.640625 -4.625 C 46.722656 -3.882812 46.898438 -3.3125 47.171875 -2.90625 C 47.453125 -2.507812 47.851562 -2.25 48.375 -2.125 C 48.90625 -2.007812 49.632812 -1.921875 50.5625 -1.859375 L 50.5625 0 L 35.921875 0 L 35.921875 -1.859375 C 36.847656 -1.890625 37.578125 -1.972656 38.109375 -2.109375 C 38.648438 -2.242188 39.066406 -2.503906 39.359375 -2.890625 C 39.660156 -3.273438 39.847656 -3.804688 39.921875 -4.484375 C 40.003906 -5.171875 40.046875 -6.101562 40.046875 -7.28125 L 40.046875 -13.34375 C 40.046875 -14.945312 39.953125 -16.304688 39.765625 -17.421875 C 39.578125 -18.535156 39.28125 -19.429688 38.875 -20.109375 C 38.476562 -20.785156 37.945312 -21.269531 37.28125 -21.5625 C 36.613281 -21.863281 35.800781 -22.015625 34.84375 -22.015625 C 33.769531 -22.015625 32.882812 -21.75 32.1875 -21.21875 C 31.488281 -20.695312 30.910156 -20.019531 30.453125 -19.1875 C 29.648438 -17.738281 29.25 -15.929688 29.25 -13.765625 L 29.25 -7.640625 C 29.25 -6.378906 29.273438 -5.375 29.328125 -4.625 C 29.390625 -3.882812 29.5625 -3.3125 29.84375 -2.90625 C 30.125 -2.507812 30.535156 -2.25 31.078125 -2.125 C 31.617188 -2.007812 32.367188 -1.921875 33.328125 -1.859375 L 33.328125 0 L 18.625 0 L 18.625 -1.859375 C 19.550781 -1.921875 20.285156 -2.007812 20.828125 -2.125 C 21.367188 -2.25 21.785156 -2.492188 22.078125 -2.859375 C 22.367188 -3.234375 22.550781 -3.769531 22.625 -4.46875 C 22.707031 -5.164062 22.75 -6.101562 22.75 -7.28125 L 22.75 -13.34375 C 22.75 -14.945312 22.65625 -16.304688 22.46875 -17.421875 C 22.289062 -18.535156 21.992188 -19.429688 21.578125 -20.109375 C 21.160156 -20.785156 20.609375 -21.269531 19.921875 -21.5625 C 19.242188 -21.863281 18.394531 -22.015625 17.375 -22.015625 C 16.351562 -22.015625 15.507812 -21.765625 14.84375 -21.265625 C 14.1875 -20.773438 13.640625 -20.113281 13.203125 -19.28125 C 12.804688 -18.539062 12.5 -17.691406 12.28125 -16.734375 C 12.0625 -15.773438 11.953125 -14.785156 11.953125 -13.765625 Z M 11.953125 -7.640625 "/></g></g></g><g fill="#1f1d1b" fill-opacity="1"><g transform="translate(267.935865, 44.876238)"><g><path d="M 25.03125 -4.3125 C 22.21875 -1.125 18.707031 0.46875 14.5 0.46875 C 12.582031 0.46875 10.84375 0.164062 9.28125 -0.4375 C 7.726562 -1.039062 6.394531 -1.890625 5.28125 -2.984375 C 4.164062 -4.085938 3.300781 -5.394531 2.6875 -6.90625 C 2.070312 -8.414062 1.765625 -10.097656 1.765625 -11.953125 C 1.765625 -13.867188 2.085938 -15.625 2.734375 -17.21875 C 3.378906 -18.8125 4.296875 -20.1875 5.484375 -21.34375 C 6.679688 -22.5 8.085938 -23.398438 9.703125 -24.046875 C 11.328125 -24.703125 13.113281 -25.03125 15.0625 -25.03125 C 18.332031 -25.03125 20.878906 -24.148438 22.703125 -22.390625 C 24.523438 -20.628906 25.4375 -18.15625 25.4375 -14.96875 C 25.4375 -14.476562 25.359375 -14.175781 25.203125 -14.0625 C 25.054688 -13.957031 24.625 -13.90625 23.90625 -13.90625 L 8.984375 -13.90625 C 8.867188 -13.625 8.8125 -13.113281 8.8125 -12.375 C 8.8125 -9.34375 9.46875 -6.945312 10.78125 -5.1875 C 12.09375 -3.425781 13.875 -2.546875 16.125 -2.546875 C 17.425781 -2.546875 18.71875 -2.835938 20 -3.421875 C 21.28125 -4.015625 22.523438 -4.851562 23.734375 -5.9375 Z M 16.03125 -16.5 C 17.269531 -16.5 18.066406 -16.566406 18.421875 -16.703125 C 18.773438 -16.847656 18.953125 -17.179688 18.953125 -17.703125 C 18.953125 -19.066406 18.566406 -20.179688 17.796875 -21.046875 C 17.023438 -21.910156 16.050781 -22.34375 14.875 -22.34375 C 13.550781 -22.34375 12.367188 -21.789062 11.328125 -20.6875 C 10.296875 -19.59375 9.625 -18.195312 9.3125 -16.5 Z M 16.03125 -16.5 "/></g></g></g></g></g></g></g></g></svg>